<mxfile host="65bd71144e" scale="3" border="0">
    <diagram id="LzTGRrPrDBO6Tm46XuKC" name="Page-1">
        <mxGraphModel dx="4904" dy="2319" grid="0" gridSize="10" guides="1" tooltips="1" connect="1" arrows="1" fold="1" page="0" pageScale="1" pageWidth="1600" pageHeight="1200" math="0" shadow="0">
            <root>
                <mxCell id="0"/>
                <mxCell id="1" parent="0"/>
                <mxCell id="262" value="&amp;nbsp; t_web_server" style="rounded=0;whiteSpace=wrap;html=1;align=left;verticalAlign=top;" parent="1" vertex="1">
                    <mxGeometry x="-3152" y="-661" width="520" height="587" as="geometry"/>
                </mxCell>
                <mxCell id="241" style="edgeStyle=none;html=1;exitX=0.5;exitY=1;exitDx=0;exitDy=0;entryX=0.5;entryY=0;entryDx=0;entryDy=0;" parent="1" source="224" target="239" edge="1">
                    <mxGeometry relative="1" as="geometry"/>
                </mxCell>
                <mxCell id="224" value="start web server" style="rounded=1;whiteSpace=wrap;html=1;flipV=1;flipH=1;" parent="1" vertex="1">
                    <mxGeometry x="-2850" y="-625" width="154" height="60" as="geometry"/>
                </mxCell>
                <mxCell id="238" style="edgeStyle=none;html=1;exitX=0.5;exitY=1;exitDx=0;exitDy=0;" parent="1" source="234" target="235" edge="1">
                    <mxGeometry relative="1" as="geometry"/>
                </mxCell>
                <mxCell id="234" value="prepare frame&lt;div&gt;parse data, ...&lt;/div&gt;" style="rounded=0;whiteSpace=wrap;html=1;flipV=1;flipH=1;" parent="1" vertex="1">
                    <mxGeometry x="-2850" y="-338" width="154" height="60" as="geometry"/>
                </mxCell>
                <mxCell id="235" value="return GET response" style="rounded=0;whiteSpace=wrap;html=1;flipV=0;flipH=1;" parent="1" vertex="1">
                    <mxGeometry x="-2850" y="-195" width="154" height="60" as="geometry"/>
                </mxCell>
                <mxCell id="240" style="edgeStyle=none;html=1;exitX=0.5;exitY=1;exitDx=0;exitDy=0;entryX=0.5;entryY=0;entryDx=0;entryDy=0;" parent="1" source="239" target="234" edge="1">
                    <mxGeometry relative="1" as="geometry"/>
                </mxCell>
                <mxCell id="242" value="GET request&lt;div&gt;/data&lt;/div&gt;" style="edgeLabel;html=1;align=left;verticalAlign=middle;resizable=0;points=[];" parent="240" vertex="1" connectable="0">
                    <mxGeometry x="-0.4079" relative="1" as="geometry">
                        <mxPoint x="8" y="-5" as="offset"/>
                    </mxGeometry>
                </mxCell>
                <mxCell id="245" style="edgeStyle=orthogonalEdgeStyle;html=1;exitX=0;exitY=0.5;exitDx=0;exitDy=0;entryX=0.5;entryY=0;entryDx=0;entryDy=0;" parent="1" source="239" target="244" edge="1">
                    <mxGeometry relative="1" as="geometry"/>
                </mxCell>
                <mxCell id="246" value="POST request&lt;div&gt;/firmware&lt;/div&gt;" style="edgeLabel;html=1;align=left;verticalAlign=middle;resizable=0;points=[];" parent="245" vertex="1" connectable="0">
                    <mxGeometry x="-0.4953" y="-2" relative="1" as="geometry">
                        <mxPoint x="14" y="25" as="offset"/>
                    </mxGeometry>
                </mxCell>
                <mxCell id="239" value="Wait for request&lt;div&gt;&lt;i&gt;(wait forever)&lt;/i&gt;&lt;/div&gt;" style="rhombus;whiteSpace=wrap;html=1;" parent="1" vertex="1">
                    <mxGeometry x="-2855" y="-503" width="164" height="102" as="geometry"/>
                </mxCell>
                <mxCell id="244" value="start firmware&lt;br&gt;update process" style="rounded=1;whiteSpace=wrap;html=1;" parent="1" vertex="1">
                    <mxGeometry x="-3128" y="-338" width="151" height="60" as="geometry"/>
                </mxCell>
                <mxCell id="287" style="edgeStyle=orthogonalEdgeStyle;html=1;exitX=0.5;exitY=1;exitDx=0;exitDy=0;entryX=0.5;entryY=1;entryDx=0;entryDy=0;" parent="1" source="252" edge="1">
                    <mxGeometry relative="1" as="geometry">
                        <Array as="points">
                            <mxPoint x="-3075" y="-695"/>
                            <mxPoint x="-2733" y="-695"/>
                        </Array>
                        <mxPoint x="-2733" y="-780" as="targetPoint"/>
                    </mxGeometry>
                </mxCell>
            </root>
        </mxGraphModel>
    </diagram>
</mxfile>